/vscmnt/brussel_pixiu_data/_data_brussel/112/vsc11236/PredSimResults/SUBJ04_Dhondt2024_3seg/weighted/worker_03.mot
version=1
nRows=4
nColumns=124
inDegrees=yes
endheader
                time	         pelvis_tilt	         pelvis_list	     pelvis_rotation	           pelvis_tx	           pelvis_ty	           pelvis_tz	       hip_flexion_r	     hip_adduction_r	      hip_rotation_r	        knee_angle_r	       ankle_angle_r	    subtalar_angle_r	         mtp_angle_r	       hip_flexion_l	     hip_adduction_l	      hip_rotation_l	        knee_angle_l	       ankle_angle_l	    subtalar_angle_l	         mtp_angle_l	    lumbar_extension	      lumbar_bending	     lumbar_rotation	          arm_flex_r	           arm_add_r	           arm_rot_r	        elbow_flex_r	          arm_flex_l	           arm_add_l	           arm_rot_l	        elbow_flex_l	glut_med1_r/activation	glut_med2_r/activation	glut_med3_r/activation	glut_min1_r/activation	glut_min2_r/activation	glut_min3_r/activation	semimem_r/activation	semiten_r/activation	bifemlh_r/activation	bifemsh_r/activation	    sar_r/activation	add_long_r/activation	add_brev_r/activation	add_mag1_r/activation	add_mag2_r/activation	add_mag3_r/activation	    tfl_r/activation	   pect_r/activation	   grac_r/activation	glut_max1_r/activation	glut_max2_r/activation	glut_max3_r/activation	iliacus_r/activation	  psoas_r/activation	quad_fem_r/activation	    gem_r/activation	   peri_r/activation	rect_fem_r/activation	vas_med_r/activation	vas_int_r/activation	vas_lat_r/activation	med_gas_r/activation	lat_gas_r/activation	 soleus_r/activation	tib_post_r/activation	flex_dig_r/activation	flex_hal_r/activation	tib_ant_r/activation	per_brev_r/activation	per_long_r/activation	per_tert_r/activation	ext_dig_r/activation	ext_hal_r/activation	glut_med1_l/activation	glut_med2_l/activation	glut_med3_l/activation	glut_min1_l/activation	glut_min2_l/activation	glut_min3_l/activation	semimem_l/activation	semiten_l/activation	bifemlh_l/activation	bifemsh_l/activation	    sar_l/activation	add_long_l/activation	add_brev_l/activation	add_mag1_l/activation	add_mag2_l/activation	add_mag3_l/activation	    tfl_l/activation	   pect_l/activation	   grac_l/activation	glut_max1_l/activation	glut_max2_l/activation	glut_max3_l/activation	iliacus_l/activation	  psoas_l/activation	quad_fem_l/activation	    gem_l/activation	   peri_l/activation	rect_fem_l/activation	vas_med_l/activation	vas_int_l/activation	vas_lat_l/activation	med_gas_l/activation	lat_gas_l/activation	 soleus_l/activation	tib_post_l/activation	flex_dig_l/activation	flex_hal_l/activation	tib_ant_l/activation	per_brev_l/activation	per_long_l/activation	per_tert_l/activation	ext_dig_l/activation	ext_hal_l/activation	 ercspn_r/activation	 ercspn_l/activation	 intobl_r/activation	 intobl_l/activation	 extobl_r/activation	 extobl_l/activation	
          0.00000000	         -2.92505656	         -0.38797709	          1.22842180	          0.00000000	          0.87410341	         -0.00197542	         25.77267668	          3.58622618	          7.74877456	         -6.45277239	          2.74227754	         -4.76636579	          0.20156272	        -13.16129640	          3.83783773	         13.61669796	         -6.32178163	          9.36536901	         -1.49802106	         12.51884540	         -3.96413829	         -0.74421497	         -1.21785726	         -2.55044904	        -13.45095692	         14.68860795	         23.78892458	          2.36586597	        -13.49859645	         19.36180091	         37.64273089	          0.03181979	          0.01220120	          0.01000025	          0.01498738	          0.01498634	          0.01000103	          0.01224238	          0.04429266	          0.05349367	          0.01000021	          0.01000020	          0.13637023	          0.18985839	          0.13495723	          0.15054189	          0.08557033	          0.01000045	          0.02380612	          0.04525225	          0.01003580	          0.01498602	          0.03951915	          0.01706116	          0.01511193	          0.01235950	          0.01000068	          0.01000017	          0.01000014	          0.08115534	          0.08397795	          0.06850188	          0.01000004	          0.01000010	          0.01000008	          0.01000088	          0.01000118	          0.01000166	          0.20574617	          0.16100464	          0.10309257	          0.13752095	          0.32467634	          0.03459528	          0.42159424	          0.21693724	          0.11072181	          0.35383329	          0.35493886	          0.24819235	          0.01221466	          0.01000251	          0.01000184	          0.04927555	          0.12186016	          0.01000009	          0.01000015	          0.01000048	          0.01000162	          0.01000093	          0.34775679	          0.01000051	          0.01000060	          0.03371003	          0.02281232	          0.01000158	          0.24455704	          0.34835279	          0.01000044	          0.02189165	          0.10940655	          0.13057437	          0.01000031	          0.01000038	          0.01000032	          0.40228538	          0.43651031	          0.37984642	          0.21479311	          0.24345013	          0.30638052	          0.01250619	          0.10760518	          0.19051831	          0.01499018	          0.01499665	          0.01410276	          0.01498731	          0.01000000	          0.04929482	          0.01000003	          0.07698194	          0.01000005	
          0.01345344	         -2.92976406	         -0.62012011	          1.34563358	          0.01389779	          0.87366647	         -0.00177611	         24.78894767	          4.02511909	          7.96521504	         -5.42050010	          1.67758253	         -5.19447735	          0.21604543	        -13.36329153	          3.66517048	         13.23360164	         -7.64200650	          9.07150235	         -1.12755953	         13.61649453	         -3.83205557	         -0.28122846	         -1.30091205	         -3.31417039	        -13.45500384	         14.04131555	         22.44989966	          1.93777366	        -13.52077362	         19.37248744	         39.93678026	          0.02599182	          0.01000186	          0.01000026	          0.01224251	          0.01224208	          0.01000112	          0.01000015	          0.03618026	          0.04369605	          0.01000007	          0.01000028	          0.11139404	          0.19439997	          0.16406221	          0.13610136	          0.06989794	          0.01000035	          0.03374890	          0.03696431	          0.01000114	          0.01224156	          0.05541034	          0.01393634	          0.01234412	          0.09022619	          0.01000079	          0.01000065	          0.01498779	          0.07478236	          0.07188707	          0.06236350	          0.01000001	          0.01000003	          0.01000000	          0.01000005	          0.01000033	          0.01000026	          0.20817134	          0.14265497	          0.09325965	          0.16362840	          0.34261899	          0.04073742	          0.44827924	          0.17720399	          0.09044248	          0.30894369	          0.32073269	          0.20273465	          0.01000116	          0.01000035	          0.01000029	          0.04025048	          0.10695212	          0.01000046	          0.01000038	          0.01000097	          0.01000307	          0.01000079	          0.33105392	          0.01000331	          0.01000556	          0.02753636	          0.01863497	          0.01000197	          0.22282985	          0.28455428	          0.01834404	          0.01838248	          0.08936813	          0.14133546	          0.01000069	          0.01000083	          0.01000068	          0.37173417	          0.40526435	          0.36665147	          0.21311777	          0.25005461	          0.30851023	          0.01021561	          0.08789670	          0.17957166	          0.01224466	          0.01224993	          0.01151979	          0.01224231	          0.01000016	          0.04026619	          0.01498720	          0.06288224	          0.01000011	
          0.02690687	         -2.92980589	         -0.86484558	          1.45519564	          0.02816438	          0.87331546	         -0.00157939	         23.78325522	          4.43091560	          8.20515564	         -4.96425668	          0.29511296	         -5.61132868	          0.22637091	        -13.51388243	          3.47540749	         12.83233899	         -9.07553966	          8.62370034	         -0.71421558	         14.79859070	         -3.67917098	          0.20234034	         -1.37676891	         -4.08531569	        -13.46948645	         13.58902385	         21.06049313	          1.42381868	        -13.54199472	         19.37144353	         42.24680023	          0.02123128	          0.01000004	          0.01000012	          0.01000028	          0.01000012	          0.01000010	          0.03589641	          0.05243924	          0.03569292	          0.02749834	          0.01097629	          0.09099185	          0.15879498	          0.13401379	          0.11117386	          0.05709577	          0.01000025	          0.02758068	          0.10362541	          0.01000013	          0.01000015	          0.04526164	          0.01834736	          0.01834759	          0.12025117	          0.01866008	          0.01000030	          0.01224271	          0.06108556	          0.05872056	          0.05094129	          0.01547849	          0.01832744	          0.01224239	          0.01498719	          0.01226734	          0.01498649	          0.17004356	          0.12902637	          0.09772013	          0.13365895	          0.36483417	          0.03327621	          0.40373513	          0.14474806	          0.07387742	          0.28649215	          0.26198890	          0.16560266	          0.01000969	          0.01000052	          0.01000037	          0.03287840	          0.08736350	          0.01000026	          0.01000025	          0.01000067	          0.01000200	          0.01000077	          0.27042029	          0.01000146	          0.01000106	          0.02249318	          0.01522242	          0.01000091	          0.20322357	          0.24291859	          0.01498438	          0.01501611	          0.07299985	          0.17075938	          0.01000030	          0.01000036	          0.01000030	          0.33743056	          0.36792349	          0.34728301	          0.20273462	          0.24471170	          0.29876189	          0.01000001	          0.07179796	          0.17897346	          0.01000201	          0.01000630	          0.01000012	          0.01000007	          0.01000011	          0.03289122	          0.01224226	          0.05136499	          0.01414288	
          0.04036031	         -2.92643523	         -1.12828789	          1.55190832	          0.04270743	          0.87307608	         -0.00139446	         22.74329277	          4.77998051	          8.47225540	         -4.62109229	         -1.30825696	         -6.02015249	          0.22547520	        -13.59823855	          3.26236082	         12.41510336	        -10.62922951	          8.00849600	         -0.25338637	         16.04554798	         -3.51204312	          0.71331888	         -1.44289693	         -4.83754919	        -13.49604817	         13.37572391	         19.60052726	          0.83450113	        -13.55710215	         19.35033534	         44.56687975	          0.17582765	          0.16311085	          0.15656321	          0.03653829	          0.01000140	          0.12881028	          0.02932194	          0.04366387	          0.02915590	          0.02246191	          0.01040515	          0.07432618	          0.12971077	          0.10946848	          0.09081185	          0.04663844	          0.01000082	          0.02252935	          0.08464589	          0.01000046	          0.01000027	          0.03697178	          0.01498696	          0.01498715	          0.09822652	          0.01524269	          0.07283672	          0.01000042	          0.04989745	          0.04796563	          0.04161116	          0.01264352	          0.01497068	          0.01000014	          0.01224222	          0.01002060	          0.01224172	          0.29895716	          0.18471759	          0.10014101	          0.34505329	          0.44696280	          0.02718171	          0.40835130	          0.11823661	          0.06034634	          0.37424009	          0.21400425	          0.13527158	          0.01000114	          0.01000024	          0.01000025	          0.02685656	          0.07136249	          0.01000012	          0.01000014	          0.01000039	          0.01000128	          0.01000051	          0.22089147	          0.01000068	          0.01000066	          0.01837363	          0.01243558	          0.01000142	          0.17011664	          0.23403836	          0.01224123	          0.01226622	          0.05962951	          0.13948420	          0.01000060	          0.01000064	          0.01000045	          0.29715536	          0.32826472	          0.32214408	          0.18641996	          0.21825168	          0.27686976	          0.01000003	          0.05864786	          0.18725260	          0.01000009	          0.01000003	          0.01000019	          0.01433124	          0.01379249	          0.02749831	          0.01000003	          0.04195719	          0.01155256	
